<?xml version="1.0" standalone="no"?>
<!DOCTYPE svg PUBLIC "-//W3C//DTD SVG 20010904//EN"
 "http://www.w3.org/TR/2001/REC-SVG-20010904/DTD/svg10.dtd">
<svg version="1.0" xmlns="http://www.w3.org/2000/svg"
 width="192.000000pt" height="192.000000pt" viewBox="0 0 192.000000 192.000000"
 preserveAspectRatio="xMidYMid meet">
<metadata>
Created by potrace 1.11, written by Peter Selinger 2001-2013
</metadata>
<g transform="translate(0.000000,192.000000) scale(0.100000,-0.100000)"
fill="#000000" stroke="none">
<path d="M458 1708 c-2 -7 -4 -110 -3 -228 l0 -215 35 0 35 0 1 180 c1 99 2
185 3 191 1 7 59 10 187 10 102 -1 188 2 190 6 12 19 13 53 1 60 -6 4 -109 8
-228 8 -165 0 -218 -3 -221 -12z"/>
<path d="M1053 1711 c-11 -6 -11 -47 0 -57 3 -3 90 -6 194 -6 l188 1 -1 -190
-2 -189 25 -6 c13 -4 29 -2 34 3 10 10 14 426 5 442 -6 9 -429 12 -443 2z"/>
<path d="M925 1410 c-41 -12 -88 -57 -105 -99 -13 -33 -22 -274 -12 -314 4
-15 12 -18 46 -13 22 3 42 5 44 5 1 1 2 19 2 41 l0 41 78 -3 77 -3 5 -40 c5
-38 7 -40 42 -43 27 -2 39 1 46 15 10 19 8 244 -2 296 -17 82 -133 143 -221
117z m126 -137 c5 -15 9 -45 7 -67 l-3 -41 -77 -1 c-77 -1 -78 -1 -79 25 -3
77 9 107 54 126 27 11 36 11 60 -1 15 -8 32 -27 38 -41z"/>
<path d="M1448 1130 c-15 -9 -17 -31 -16 -191 0 -99 -3 -183 -6 -187 -4 -4
-91 -7 -193 -7 l-186 0 -4 -27 c-2 -14 2 -30 9 -35 19 -12 447 -10 451 2 2 5
3 106 2 223 -1 175 -3 215 -15 222 -18 12 -21 12 -42 0z"/>
<path d="M459 1113 c0 -10 -1 -111 -2 -225 -2 -177 0 -207 13 -210 8 -2 110
-3 225 -3 l210 1 0 34 0 35 -190 0 -191 0 1 190 0 190 -32 3 c-26 3 -33 -1
-34 -15z"/>
<path d="M1173 474 c-3 -9 -6 -32 -7 -53 -1 -38 0 -38 -71 -27 -31 4 -84 -33
-104 -73 -34 -71 -11 -155 52 -186 35 -17 103 -20 112 -4 4 5 25 9 48 7 l41
-3 1 165 c0 91 -1 171 -3 178 -6 18 -61 15 -69 -4z m-31 -168 c9 -7 20 -27 23
-44 10 -56 -61 -96 -98 -54 -49 55 16 142 75 98z"/>
<path d="M270 452 c-38 -26 -49 -38 -61 -68 -11 -32 -16 -235 -5 -253 4 -6 20
-11 36 -11 28 0 40 15 40 51 0 18 6 20 63 17 40 -2 62 -7 63 -15 1 -7 2 -22 3
-33 1 -16 8 -20 36 -20 21 0 35 5 36 13 0 6 2 59 3 117 2 120 -13 164 -64 197
-40 25 -117 28 -150 5z m120 -77 c16 -19 21 -105 7 -106 -64 -6 -117 -2 -118
9 -5 77 -2 85 30 103 34 18 63 16 81 -6z"/>
<path d="M795 381 c-71 -32 -99 -118 -63 -191 24 -48 61 -70 119 -70 39 0 109
31 109 49 0 8 -38 51 -46 51 -2 0 -16 -7 -29 -16 -20 -13 -25 -14 -25 -3 0 13
13 30 77 100 28 30 23 53 -17 74 -46 24 -82 25 -125 6z m55 -65 c0 -12 -43
-76 -51 -76 -17 0 -9 40 11 60 18 18 40 27 40 16z"/>
<path d="M1564 384 c-109 -37 -124 -195 -23 -246 96 -49 203 13 201 118 -2
101 -85 160 -178 128z m88 -83 c4 -4 10 -20 13 -36 7 -35 -23 -75 -57 -75 -54
0 -81 83 -36 114 20 15 62 13 80 -3z"/>
<path d="M618 377 c-13 -4 -38 -6 -55 -2 l-33 6 -1 -66 c-3 -197 -1 -205 54
-191 21 5 22 10 22 85 -1 88 5 97 70 103 26 3 30 8 33 36 2 17 0 33 -5 33 -31
5 -65 4 -85 -4z"/>
<path d="M1364 377 c-9 -5 -29 -6 -45 -3 -16 3 -29 2 -30 -2 -5 -38 -3 -221 2
-233 5 -9 21 -16 39 -17 l30 -1 0 79 c0 93 11 110 71 110 l40 0 -3 37 c-3 36
-4 37 -45 38 -24 0 -50 -3 -59 -8z"/>
</g>
</svg>
